<svg width="86" height="91" viewBox="0 0 86 91" fill="none" xmlns="http://www.w3.org/2000/svg">
<path d="M62.7087 40.1565C59.7169 36.9178 57.7728 32.8033 57.087 28.2581C56.4013 23.7167 56.7331 19.5838 58.0729 15.9746C62.5493 3.91815 62.6785 0.39137 62.6785 0.0289706H59.7773L59.7778 0C59.7741 0.10664 59.6755 2.19964 57.5081 8.78539C56.4484 8.47294 54.8674 8.13595 53.0277 8.16119C50.254 8.19923 46.3887 9.08203 42.9993 12.8432C39.61 9.08185 35.7447 8.19923 32.9709 8.16119C31.1283 8.13702 29.5489 8.47329 28.4905 8.78521C26.3231 2.19964 26.2245 0.10664 26.2208 0L26.2211 0.0287929H23.32C23.32 0.391193 23.4491 3.91779 27.9255 15.9746C29.2655 19.5834 29.5971 23.7165 28.9115 28.2581C28.2255 32.8033 26.2814 36.9178 23.2897 40.1565C20.2827 43.4119 17.7451 47.3407 15.7476 51.8335C15.4066 52.6006 15.7179 53.515 16.4427 53.8758C16.6422 53.975 16.8523 54.0221 17.0593 54.0221C17.6037 54.0221 18.1257 53.6961 18.3729 53.14C20.2322 48.9579 22.5844 45.3115 25.3645 42.3021C27.087 40.4375 28.504 38.3191 29.5863 36.0134H47.7096C48.511 36.0134 49.1602 35.3261 49.1602 34.4784C49.1602 33.6308 48.5108 32.9435 47.7096 32.9435H30.7898C31.2256 31.5876 31.5588 30.1847 31.7767 28.7421C32.5451 23.6514 32.1581 18.9779 30.6259 14.8516C30.203 13.7124 29.8212 12.6552 29.4755 11.6727C31.931 10.9811 37.5447 10.2553 41.8527 16.1365C42.1274 16.5117 42.5508 16.731 42.9993 16.731C43.4478 16.731 43.8712 16.5113 44.1458 16.1365C48.4537 10.2553 54.0676 10.9813 56.5231 11.6727C56.1774 12.655 55.7956 13.7124 55.3727 14.8516C53.8407 18.9784 53.4535 23.6518 54.2221 28.7419C54.44 30.1846 54.7732 31.5874 55.2089 32.9435H52.8293C52.0279 32.9435 51.3787 33.6308 51.3787 34.4784C51.3787 35.3261 52.0281 36.0134 52.8293 36.0134H56.4122C57.4948 38.3191 58.9116 40.4373 60.6341 42.3021C67.4033 49.6299 71.4797 60.4653 72.0021 72.336C68.9005 74.156 65.1036 74.0072 62.1238 71.8915C61.6315 71.5349 60.9827 71.5362 60.4905 71.8879C57.2766 74.1682 53.1238 74.1675 49.925 71.8963C49.4306 71.5342 48.7779 71.5351 48.2848 71.8883C45.07 74.1684 40.9178 74.1672 37.6989 71.8811C37.2035 71.5315 36.5607 71.5408 36.0763 71.8906C32.8624 74.1679 28.7119 74.1656 25.4955 71.8811C25.0067 71.5363 24.3698 71.5374 23.8825 71.8838C20.8972 74.0047 17.1019 74.1549 13.9977 72.3354C14.2246 67.1694 15.1253 62.1879 16.6887 57.4939C16.9548 56.6945 16.5584 55.8179 15.8027 55.5362C15.0473 55.2548 14.2188 55.6743 13.9525 56.4737C12.0184 62.2814 11.0376 68.4957 11.0376 74.9433V89.4646C11.0376 90.3123 11.6871 90.9995 12.4882 90.9995H73.5126C74.314 90.9995 74.9632 90.3122 74.9632 89.4646V74.9433C74.962 61.2658 70.4961 48.5863 62.7087 40.1565ZM13.9377 75.7044C17.4169 77.2025 21.3675 76.9555 24.6902 74.9616C28.485 77.2384 33.0989 77.2382 36.8936 74.9616C40.6892 77.2391 45.3037 77.2391 49.0989 74.9616C50.9966 76.1002 53.0994 76.6697 55.2019 76.6697C57.3043 76.6697 59.4071 76.1004 61.3047 74.9616C64.6259 76.9551 68.5753 77.2029 72.061 75.7024V79.5612C68.9487 81.4176 65.1224 81.2797 62.1238 79.1505C61.6315 78.7939 60.9827 78.7952 60.4905 79.1469C57.2766 81.4272 53.1238 81.4265 49.925 79.1553C49.4335 78.7954 48.7831 78.7929 48.2885 79.1444C45.074 81.4265 40.9193 81.4272 37.6987 79.1402C37.2101 78.7955 36.5728 78.797 36.085 79.1432C32.8698 81.4267 28.7149 81.4267 25.4953 79.1402C25.0065 78.7954 24.3698 78.7962 23.8823 79.1428C20.8782 81.2769 17.0534 81.4164 13.9381 79.5605V75.7044H13.9377ZM72.0612 87.9298H13.9377V82.9636C17.4169 84.4613 21.3675 84.2143 24.6904 82.2208C28.4862 84.4983 33.1011 84.4979 36.894 82.221C40.6897 84.4987 45.3037 84.4983 49.0991 82.221C50.9971 83.3599 53.0992 83.9294 55.202 83.929C57.3045 83.929 59.4073 83.3597 61.3048 82.221C64.6261 84.2145 68.5755 84.4622 72.0612 82.9618V87.9298Z" fill="#E0E0E0"/>
<path d="M62.3509 66.8534C61.8095 60.1326 60.5659 53.7045 58.754 48.264C58.488 47.4646 57.6597 47.0446 56.904 47.3265C56.1483 47.6084 55.7514 48.4846 56.0178 49.2842C57.7489 54.4829 58.9393 60.6484 59.4602 67.114C59.5245 67.9143 60.1584 68.5188 60.9039 68.5188C60.9452 68.5188 60.9868 68.517 61.0288 68.5133C61.827 68.4411 62.4189 67.698 62.3509 66.8534Z" fill="#E0E0E0"/>
<path d="M57.1906 44.131C56.6311 42.8256 56.0303 41.5887 55.4048 40.4549C55.0008 39.7227 54.1126 39.4758 53.4205 39.9032C52.7287 40.3305 52.4952 41.2706 52.8992 42.0026C53.475 43.0461 54.0299 44.1889 54.5486 45.3991C54.7913 45.9656 55.3186 46.3004 55.8705 46.3004C56.0707 46.3004 56.2745 46.2562 56.469 46.1629C57.1983 45.8127 57.5215 44.9031 57.1906 44.131Z" fill="#E0E0E0"/>
<path d="M32.577 39.9031C31.8853 39.4754 30.9971 39.7228 30.593 40.4548C28.0192 45.1199 26.0019 51.2517 24.7591 58.1873C24.6098 59.0203 25.1269 59.8233 25.914 59.9813C26.0056 59.9998 26.0964 60.0085 26.186 60.0085C26.8691 60.0085 27.4776 59.4954 27.6095 58.7592C28.7917 52.1635 30.6897 46.3692 33.0985 42.0023C33.5022 41.2704 33.2689 40.3303 32.577 39.9031Z" fill="#E0E0E0"/>
<path d="M25.6791 61.547C24.8846 61.4373 24.1564 62.0295 24.0526 62.8699C23.8912 64.1764 23.7546 65.5167 23.6468 66.8531C23.5788 67.6976 24.1707 68.4408 24.969 68.5129C25.011 68.5166 25.0525 68.5184 25.0938 68.5184C25.8393 68.5184 26.473 67.9141 26.5377 67.1136C26.6415 65.8227 26.7734 64.529 26.9292 63.268C27.0332 62.4277 26.4734 61.6568 25.6791 61.547Z" fill="#E0E0E0"/>
<path d="M42.957 40.3136C42.156 40.3136 41.5065 41.0009 41.5065 41.8485V66.9835C41.5065 67.8311 42.156 68.5184 42.957 68.5184C43.7581 68.5184 44.4076 67.8311 44.4076 66.9835V41.8485C44.4076 41.0007 43.7584 40.3136 42.957 40.3136Z" fill="#E0E0E0"/>
</svg>
