<svg width="103" height="108" viewBox="0 0 103 108" fill="none" xmlns="http://www.w3.org/2000/svg">
<g clip-path="url(#clip0_303_560)">
<path d="M85.7084 82.2319L73.3317 45.8306C76.5567 42.7115 78.4646 38.637 78.7461 34.2008C79.0428 29.5247 77.4749 24.8552 74.4245 21.2465C74.5208 15.1516 75.5999 10.0756 76.4752 5.96067C76.7193 4.81254 76.9502 3.7279 77.1472 2.6884C77.2721 2.02774 77.1085 1.34304 76.7007 0.822443C76.2934 0.301638 75.6848 -0.000213623 75.0425 -0.000213623H67.6371C66.6653 -0.000213623 65.8149 0.684489 65.5639 1.66915C63.3341 10.4195 60.0793 18.865 51.4999 21.5928C42.92 18.8648 39.6652 10.419 37.4356 1.66915C37.1848 0.6847 36.3344 -2.68554e-06 35.3623 -2.68554e-06H27.9576C27.3151 -2.68554e-06 26.7065 0.301638 26.2989 0.822443C25.8916 1.34304 25.7278 2.02774 25.8529 2.6884C26.0499 3.7279 26.2804 4.81233 26.5249 5.96067C27.4 10.0756 28.479 15.1516 28.5756 21.2465C25.5248 24.8552 23.9573 29.5247 24.254 34.2008C24.5353 38.6366 26.4434 42.7115 29.668 45.8306L17.2913 82.2319C16.9036 83.3718 17.4456 84.6288 18.5176 85.0772C25.9966 88.2054 38.0057 89.9996 51.4657 89.9996C64.9702 89.9996 77.0041 88.2052 84.4825 85.0772C85.5547 84.6285 86.0963 83.3718 85.7084 82.2319ZM51.4657 85.4999C47.6887 85.4999 44.0033 85.3478 40.5049 85.0603L41.8065 75.986C41.9825 74.7573 41.1754 73.6111 40.0036 73.4265C38.8305 73.2411 37.7386 74.088 37.5628 75.3167L36.227 84.6296C30.7179 83.9679 25.8411 82.9482 22.0504 81.6358L33.4158 48.2087C34.7266 48.6629 36.2004 48.9067 37.7251 48.9067C37.919 48.9067 38.1142 48.9029 38.3095 48.8951C39.494 48.8472 40.4168 47.8018 40.3709 46.56C40.3253 45.3182 39.3349 44.3505 38.1437 44.3985C36.3426 44.4726 34.5498 44.0501 33.4468 43.2968C30.5109 40.8738 28.7669 37.5412 28.536 33.9025C28.3008 30.1974 29.6581 26.4792 32.2595 23.7009C32.6534 23.2801 32.8738 22.7144 32.8738 22.1246C32.8738 15.1417 31.6761 9.50822 30.7135 4.98171C30.6791 4.81992 30.6453 4.65961 30.6111 4.50035H33.7274C34.7464 8.25546 36.1214 12.3938 38.3598 16.1084C41.1468 20.7328 44.8418 23.9104 49.3542 25.5829V30.4843C49.3542 31.7269 50.3148 32.7343 51.5001 32.7343C52.6848 32.7343 53.646 31.7271 53.646 30.4843V25.5829C58.1585 23.91 61.8535 20.7328 64.6399 16.1084C66.8783 12.3936 68.2535 8.25525 69.2723 4.50035H72.3886C72.3552 4.6594 72.3208 4.81992 72.2862 4.98171C71.324 9.50822 70.1258 15.1417 70.1258 22.1246C70.1258 22.7144 70.3467 23.2801 70.7406 23.7009C73.342 26.479 74.6991 30.1974 74.4637 33.9025C74.2332 37.5412 72.4894 40.8736 69.5533 43.2968C68.4505 44.0499 66.6599 44.4722 64.8559 44.3985C63.664 44.354 62.6744 45.3187 62.6288 46.56C62.5831 47.8018 63.5061 48.8472 64.6902 48.8951C64.8859 48.9029 65.0803 48.9067 65.2744 48.9067C66.7991 48.9067 68.2729 48.6631 69.5837 48.2087L80.9495 81.6356C73.9139 84.0706 63.1224 85.4999 51.4657 85.4999Z" fill="#E0E0E0"/>
<path d="M51.5002 36.3342C50.315 36.3342 49.3542 37.3416 49.3542 38.5842V39.9342C49.3542 41.1769 50.3148 42.1843 51.5002 42.1843C52.6849 42.1843 53.646 41.1771 53.646 39.9342V38.5842C53.646 37.3416 52.6851 36.3342 51.5002 36.3342Z" fill="#E0E0E0"/>
<path d="M41.2137 64.9879C40.04 64.8027 38.9487 65.6499 38.7728 66.8788L38.5864 68.1824C38.4103 69.4113 39.2174 70.5571 40.3893 70.7417C40.4975 70.7588 40.6047 70.7668 40.7107 70.7668C41.755 70.7668 42.6705 69.9663 42.8301 68.8506L43.0166 67.547C43.1926 66.3181 42.3855 65.1725 41.2137 64.9879Z" fill="#E0E0E0"/>
</g>
<defs>
<clipPath id="clip0_303_560">
<rect width="103" height="108" fill="white"/>
</clipPath>
</defs>
</svg>
